<svg width="311" height="250" viewBox="0 0 311 250" fill="none" xmlns="http://www.w3.org/2000/svg">
<rect width="311" height="250" rx="10" fill="#F8FF24"/>
<path d="M93.3355 100.926C93.1132 100.835 92.9033 100.952 92.7408 101.129C73.3872 122.194 54.0318 143.261 34.2524 164.835C33.5134 165.641 32.0943 165.169 32.0943 164.075V164.075C32.0943 120.926 32.0943 77.7761 32 34.6265C32 32.5628 32.5657 32 34.6397 32C53.6832 32.0938 72.6325 32.0938 91.676 32C93.75 32 94.3157 32.5628 94.3157 34.6265C94.2214 54.9818 94.2214 75.2434 94.2214 95.5987C94.2214 96.4408 94.2214 97.2073 94.2214 98.0339C94.2214 98.2086 94.3202 98.3682 94.4766 98.446V98.446C94.6604 98.5375 94.8825 98.4961 95.0211 98.3448C112.352 79.4171 129.752 60.5572 147.162 41.5891C151.705 36.6391 159.587 36.875 163.819 42.0933C178.832 60.6021 193.783 79.0562 208.895 97.7132C213.296 103.147 221.584 103.149 225.987 97.7172C237.133 83.9673 248.27 70.2258 259.476 56.4168C266 48.3759 279 52.9913 279 63.3464C279 94.3604 279 125.189 279 156.077C279 162.152 274.075 167.077 268 167.077C213.655 167.077 159.293 167.077 104.656 167.077C98.5807 167.077 93.6557 162.152 93.6557 156.077C93.6557 137.889 93.6557 119.657 93.6557 101.49C93.6557 101.261 93.5468 101.012 93.3355 100.926V100.926Z" fill="#B98EFF"/>
<path d="M126 101.889H137V90.8887V79.8887H126H115V90.8887H126V101.889Z" fill="#F8FF24"/>
<path d="M43.0001 54.0001H54.0001V43.0001V32H43.0001H32V43.0001H43.0001V54.0001Z" fill="#F8FF24"/>
<path d="M181 90.8887H192V79.8887H181H170V90.8887V101.889H181V90.8887Z" fill="#F8FF24"/>
<path d="M137 145.889H126V156.889H137V145.889Z" fill="#F8FF24"/>
<path d="M148 156.889H137V167.889H148H159H170V156.889H159H148Z" fill="#F8FF24"/>
<path d="M181 145.889H170V156.889H181V145.889Z" fill="#F8FF24"/>
<path d="M126 123.889H115H104V134.889H115V145.889H126V134.889V123.889Z" fill="#F8FF24"/>
<path d="M181 123.889V134.889V145.889H192V134.889H203V123.889H192H181Z" fill="#F8FF24"/>
<path d="M36.7817 218.164H33.0659V196.254H36.7817V206.654C36.9692 205.82 37.2382 205.077 37.5885 204.426C37.9389 203.775 38.3633 203.224 38.8617 202.775C39.365 202.326 39.9374 201.986 40.5789 201.754C41.2204 201.517 41.9212 201.399 42.6811 201.399C43.5841 201.399 44.386 201.566 45.0867 201.902C45.7924 202.232 46.387 202.716 46.8706 203.353C47.3592 203.989 47.7293 204.771 47.9809 205.699C48.2326 206.622 48.3584 207.675 48.3584 208.86V218.164H44.6426V209.23C44.6426 206.2 43.4164 204.685 40.9638 204.685C40.3075 204.685 39.7203 204.791 39.2022 205.003C38.684 205.215 38.2448 205.526 37.8846 205.936C37.5244 206.341 37.2505 206.839 37.063 207.431C36.8755 208.023 36.7817 208.702 36.7817 209.467V218.164ZM61.9171 201.843H65.6329V218.164H61.9171V213.353C61.7345 214.187 61.4655 214.929 61.1102 215.581C60.7599 216.232 60.333 216.782 59.8297 217.231C59.3313 217.68 58.7613 218.021 58.1198 218.253C57.4783 218.49 56.7776 218.608 56.0177 218.608C55.1146 218.608 54.3103 218.443 53.6046 218.112C52.9039 217.777 52.3092 217.291 51.8207 216.654C51.3371 216.017 50.9695 215.238 50.7178 214.315C50.4662 213.387 50.3403 212.331 50.3403 211.147V201.843H54.0561V210.777C54.0561 213.807 55.2824 215.322 57.7349 215.322C58.3962 215.322 58.9859 215.216 59.504 215.003C60.0221 214.791 60.4589 214.483 60.8142 214.078C61.1744 213.669 61.4483 213.168 61.6358 212.576C61.8233 211.978 61.9171 211.3 61.9171 210.54V201.843ZM71.5378 200.044H67.7036V196.254H71.5378V200.044ZM71.4786 218.164H67.7628V201.843H71.4786V218.164ZM80.4577 201.399C81.6124 201.399 82.6413 201.527 83.5443 201.783C84.4474 202.04 85.2098 202.408 85.8315 202.886C86.4533 203.365 86.9246 203.945 87.2453 204.626C87.571 205.307 87.7339 206.074 87.7339 206.928H84.0847C84.0847 206.528 84.0057 206.168 83.8478 205.847C83.6948 205.526 83.4654 205.252 83.1594 205.026C82.8584 204.799 82.4858 204.623 82.0417 204.5C81.5976 204.377 81.0844 204.315 80.5021 204.315C79.984 204.315 79.5102 204.364 79.0809 204.463C78.6565 204.557 78.2914 204.692 77.9854 204.87C77.6795 205.048 77.4401 205.26 77.2674 205.507C77.0996 205.753 77.0158 206.027 77.0158 206.328C77.0158 206.684 77.1194 206.975 77.3266 207.202C77.5388 207.424 77.8176 207.606 78.1631 207.749C78.5085 207.893 78.8983 208.009 79.3326 208.097C79.7718 208.181 80.2184 208.26 80.6723 208.334L81.7604 208.512C82.2095 208.586 82.6808 208.67 83.1742 208.764C83.6677 208.852 84.1562 208.973 84.6398 209.126C85.1234 209.279 85.5848 209.472 86.024 209.704C86.4632 209.931 86.8506 210.217 87.1861 210.562C87.5217 210.908 87.7881 211.322 87.9855 211.806C88.1829 212.284 88.2816 212.852 88.2816 213.508C88.2816 214.322 88.1188 215.045 87.7931 215.677C87.4674 216.309 86.9863 216.842 86.3497 217.276C85.718 217.71 84.9359 218.041 84.0032 218.268C83.0706 218.495 81.9973 218.608 80.7834 218.608C79.5152 218.608 78.3999 218.482 77.4377 218.231C76.4754 217.984 75.6711 217.621 75.0246 217.143C74.3782 216.659 73.8921 216.067 73.5664 215.366C73.2407 214.66 73.0779 213.854 73.0779 212.946H76.7271C76.7271 213.824 77.0577 214.5 77.7189 214.974C78.3802 215.443 79.3943 215.677 80.7612 215.677C81.3681 215.677 81.9109 215.63 82.3896 215.536C82.8732 215.443 83.2803 215.307 83.6109 215.129C83.9465 214.952 84.2006 214.732 84.3733 214.47C84.551 214.209 84.6398 213.91 84.6398 213.575C84.6398 213.308 84.5905 213.076 84.4918 212.879C84.3931 212.682 84.2524 212.509 84.0699 212.361C83.8922 212.208 83.68 212.08 83.4333 211.976C83.1866 211.867 82.9152 211.774 82.6191 211.695C82.323 211.611 82.0072 211.537 81.6716 211.473C81.341 211.408 81.0005 211.347 80.6501 211.288L79.5546 211.103C79.2487 211.048 78.9255 210.989 78.585 210.925C78.2494 210.861 77.9065 210.787 77.5561 210.703C77.2107 210.614 76.8677 210.51 76.5272 210.392C76.1867 210.269 75.861 210.123 75.5502 209.955C75.2393 209.787 74.9506 209.595 74.6841 209.378C74.4226 209.156 74.1931 208.902 73.9957 208.615C73.8033 208.324 73.6503 207.996 73.5368 207.631C73.4282 207.266 73.374 206.856 73.374 206.402C73.374 205.632 73.5343 204.939 73.8551 204.322C74.1808 203.705 74.6496 203.182 75.2615 202.753C75.8734 202.319 76.616 201.986 77.4895 201.754C78.3679 201.517 79.3573 201.399 80.4577 201.399ZM112.62 201.843L106.95 218.164H101.547L95.9286 201.843H99.8146L104.293 215.84L108.823 201.843H112.62ZM112.964 207.675C112.964 206.713 113.141 205.845 113.497 205.07C113.852 204.295 114.358 203.636 115.014 203.094C115.675 202.546 116.477 202.126 117.42 201.835C118.367 201.544 119.428 201.399 120.602 201.399C121.831 201.399 122.929 201.559 123.896 201.88C124.868 202.2 125.69 202.664 126.361 203.271C127.037 203.878 127.553 204.621 127.908 205.499C128.264 206.378 128.441 207.372 128.441 208.482V218.164H124.725V213.886C124.533 214.616 124.242 215.275 123.852 215.862C123.467 216.444 122.996 216.94 122.438 217.35C121.881 217.754 121.246 218.065 120.536 218.282C119.83 218.5 119.063 218.608 118.234 218.608C117.37 218.608 116.583 218.49 115.873 218.253C115.167 218.021 114.562 217.693 114.059 217.268C113.556 216.844 113.166 216.333 112.89 215.736C112.618 215.134 112.482 214.468 112.482 213.738C112.482 212.978 112.633 212.297 112.934 211.695C113.235 211.093 113.667 210.582 114.229 210.162C114.797 209.743 115.488 209.422 116.302 209.2C117.116 208.973 118.034 208.86 119.055 208.86H124.725V208.482C124.725 207.865 124.629 207.313 124.437 206.824C124.244 206.331 123.965 205.911 123.6 205.566C123.24 205.22 122.801 204.956 122.283 204.774C121.765 204.591 121.18 204.5 120.528 204.5C119.867 204.5 119.292 204.576 118.804 204.729C118.32 204.877 117.92 205.09 117.605 205.366C117.289 205.642 117.054 205.975 116.901 206.365C116.748 206.755 116.672 207.192 116.672 207.675H112.964ZM119.27 211.465C118.254 211.465 117.484 211.635 116.961 211.976C116.443 212.316 116.183 212.82 116.183 213.486C116.183 214.187 116.467 214.725 117.035 215.1C117.607 215.47 118.431 215.655 119.507 215.655C120.267 215.655 120.965 215.563 121.602 215.381C122.243 215.193 122.793 214.934 123.252 214.604C123.716 214.273 124.076 213.881 124.333 213.427C124.595 212.968 124.725 212.469 124.725 211.932V211.465H119.27ZM134.222 218.164H130.506V201.843H134.222V206.654C134.41 205.82 134.679 205.077 135.029 204.426C135.379 203.775 135.804 203.224 136.302 202.775C136.805 202.326 137.378 201.986 138.019 201.754C138.661 201.517 139.362 201.399 140.122 201.399C141.025 201.399 141.826 201.566 142.527 201.902C143.233 202.232 143.827 202.716 144.311 203.353C144.8 203.989 145.17 204.771 145.421 205.699C145.673 206.622 145.799 207.675 145.799 208.86V218.164H142.083V209.23C142.083 206.2 140.857 204.685 138.404 204.685C137.748 204.685 137.161 204.791 136.643 205.003C136.124 205.215 135.685 205.526 135.325 205.936C134.965 206.341 134.691 206.839 134.503 207.431C134.316 208.023 134.222 208.702 134.222 209.467V218.164ZM178.606 214.525C178.606 215.357 178.945 215.697 179.778 215.697H179.901C180.642 215.697 181.073 216.129 181.073 216.869V216.992C181.073 217.732 180.642 218.164 179.901 218.164H174.843C174.103 218.164 173.671 217.732 173.671 216.992V216.869C173.671 216.129 174.103 215.697 174.843 215.697H174.967C175.799 215.697 176.139 215.357 176.139 214.525V204.594C176.139 203.884 175.614 203.36 174.905 203.36C174.196 203.36 173.671 203.884 173.671 204.594V207.123C173.671 207.863 173.24 208.295 172.499 208.295H172.438C171.728 208.295 171.204 208.819 171.204 209.528V212.057C171.204 212.798 170.772 213.229 170.032 213.229H169.97C169.261 213.229 168.737 213.754 168.737 214.463V216.992C168.737 217.732 168.305 218.164 167.565 218.164H167.441C166.701 218.164 166.269 217.732 166.269 216.992V214.463C166.269 213.754 165.745 213.229 165.036 213.229H164.974C164.234 213.229 163.802 212.798 163.802 212.057V209.528C163.802 208.819 163.278 208.295 162.568 208.295H162.507C161.766 208.295 161.335 207.863 161.335 207.123V204.594C161.335 203.884 160.81 203.36 160.101 203.36C159.392 203.36 158.867 203.884 158.867 204.594V214.525C158.867 215.357 159.207 215.697 160.039 215.697H160.163C160.903 215.697 161.335 216.129 161.335 216.869V216.992C161.335 217.732 160.903 218.164 160.163 218.164H155.105C154.364 218.164 153.933 217.732 153.933 216.992V216.869C153.933 216.129 154.364 215.697 155.105 215.697H155.228C156.061 215.697 156.4 215.357 156.4 214.525V197.13C156.4 196.297 156.061 195.958 155.228 195.958H155.105C154.364 195.958 153.933 195.526 153.933 194.786V194.663C153.933 193.922 154.364 193.491 155.105 193.491H157.634C158.374 193.491 158.867 193.984 158.867 194.724V197.192C158.867 197.901 159.392 198.425 160.101 198.425C160.841 198.425 161.335 198.919 161.335 199.659V202.126C161.335 202.836 161.859 203.36 162.568 203.36H162.63C163.37 203.36 163.802 203.792 163.802 204.532V207.061C163.802 207.77 164.326 208.295 165.036 208.295H165.097C165.837 208.295 166.269 208.727 166.269 209.467V211.996C166.269 212.705 166.794 213.229 167.503 213.229C168.212 213.229 168.737 212.705 168.737 211.996V209.467C168.737 208.727 169.168 208.295 169.909 208.295H169.97C170.68 208.295 171.204 207.77 171.204 207.061V204.532C171.204 203.792 171.636 203.36 172.376 203.36H172.438C173.147 203.36 173.671 202.836 173.671 202.126V199.659C173.671 198.919 174.165 198.425 174.905 198.425C175.614 198.425 176.139 197.901 176.139 197.192V194.724C176.139 193.984 176.632 193.491 177.372 193.491H179.901C180.642 193.491 181.073 193.922 181.073 194.663V194.786C181.073 195.526 180.642 195.958 179.901 195.958H179.778C178.945 195.958 178.606 196.297 178.606 197.13V214.525ZM203.038 215.697H203.1C203.84 215.697 204.272 216.129 204.272 216.869V216.992C204.272 217.732 203.84 218.164 203.1 218.164H198.042C197.302 218.164 196.87 217.732 196.87 216.992V216.869C196.87 216.129 197.302 215.697 198.042 215.697H198.104C198.813 215.697 199.337 215.172 199.337 214.463V211.996C199.337 211.286 198.813 210.762 198.104 210.762H188.234C187.525 210.762 187.001 211.286 187.001 211.996V214.463C187.001 215.172 187.525 215.697 188.234 215.697H188.296C189.036 215.697 189.468 216.129 189.468 216.869V216.992C189.468 217.732 189.036 218.164 188.296 218.164H183.238C182.498 218.164 182.066 217.732 182.066 216.992V216.869C182.066 216.129 182.498 215.697 183.238 215.697H183.3C184.009 215.697 184.533 215.172 184.533 214.463V211.934C184.533 211.194 184.965 210.762 185.705 210.762H185.767C186.476 210.762 187.001 210.238 187.001 209.528V204.532C187.001 203.792 187.432 203.36 188.173 203.36H188.234C188.944 203.36 189.468 202.836 189.468 202.126V199.597C189.468 198.857 189.9 198.425 190.64 198.425H190.702C191.411 198.425 191.935 197.901 191.935 197.192V194.663C191.935 193.922 192.367 193.491 193.107 193.491H193.231C193.971 193.491 194.403 193.922 194.403 194.663V197.192C194.403 197.901 194.927 198.425 195.636 198.425H195.698C196.438 198.425 196.87 198.857 196.87 199.597V202.126C196.87 202.836 197.394 203.36 198.104 203.36H198.165C198.906 203.36 199.337 203.792 199.337 204.532V209.528C199.337 210.238 199.862 210.762 200.571 210.762H200.633C201.373 210.762 201.805 211.194 201.805 211.934V214.463C201.805 215.172 202.329 215.697 203.038 215.697ZM195.636 208.295C196.346 208.295 196.87 207.77 196.87 207.061V204.594C196.87 203.884 196.346 203.36 195.636 203.36H195.575C194.834 203.36 194.403 202.928 194.403 202.188V199.659C194.403 198.95 193.878 198.425 193.169 198.425C192.46 198.425 191.935 198.95 191.935 199.659V202.188C191.935 202.928 191.504 203.36 190.763 203.36H190.702C189.992 203.36 189.468 203.884 189.468 204.594V207.061C189.468 207.77 189.992 208.295 190.702 208.295H195.636ZM215.248 204.532V204.655C215.248 205.396 215.556 205.704 216.296 205.704H216.42C217.16 205.704 217.715 206.259 217.715 206.999V207.123C217.715 207.801 218.085 208.295 218.825 208.295H218.887C219.627 208.295 220.059 208.727 220.059 209.467V211.996C220.059 212.705 220.583 213.229 221.293 213.229H221.354C222.095 213.229 222.526 213.661 222.526 214.401V214.525C222.526 215.357 222.866 215.697 223.698 215.697H223.822C224.562 215.697 224.994 216.129 224.994 216.869V216.992C224.994 217.732 224.562 218.164 223.822 218.164H218.764C218.024 218.164 217.592 217.732 217.592 216.992V216.869C217.592 216.129 218.024 215.697 218.764 215.697H218.887C219.72 215.697 220.059 215.357 220.059 214.525V214.463C220.059 213.754 219.535 213.229 218.825 213.229H218.764C218.024 213.229 217.592 212.798 217.592 212.057V209.528C217.592 208.788 217.098 208.418 216.42 208.418H216.296C215.556 208.418 215.001 207.863 215.001 207.123V206.999C215.001 206.259 214.693 205.951 213.952 205.951H213.829C213.151 205.951 212.657 206.321 212.657 207.061V207.123C212.657 207.863 212.225 208.295 211.485 208.295H211.362C210.529 208.295 210.19 208.634 210.19 209.467V214.525C210.19 215.357 210.529 215.697 211.362 215.697H211.485C212.225 215.697 212.657 216.129 212.657 216.869V216.992C212.657 217.732 212.225 218.164 211.485 218.164H206.427C205.687 218.164 205.255 217.732 205.255 216.992V216.869C205.255 216.129 205.687 215.697 206.427 215.697H206.55C207.383 215.697 207.722 215.357 207.722 214.525V197.13C207.722 196.297 207.383 195.958 206.55 195.958H206.427C205.687 195.958 205.255 195.526 205.255 194.786V194.663C205.255 193.922 205.687 193.491 206.427 193.491H211.485C212.225 193.491 212.657 193.922 212.657 194.663V194.786C212.657 195.526 212.225 195.958 211.485 195.958H211.362C210.529 195.958 210.19 196.297 210.19 197.13V204.655C210.19 205.488 210.529 205.827 211.362 205.827H211.423C212.164 205.827 212.534 205.334 212.534 204.655V204.532C212.534 203.792 213.089 203.237 213.829 203.237H213.952C214.693 203.237 215.001 202.928 215.001 202.188V202.065C215.001 201.325 215.556 200.769 216.296 200.769H216.42C217.16 200.769 217.468 200.461 217.468 199.721V199.597C217.468 198.857 218.024 198.302 218.764 198.302H218.887C219.566 198.302 220.059 197.932 220.059 197.192C220.059 196.482 219.535 195.958 218.825 195.958H218.764C218.024 195.958 217.592 195.526 217.592 194.786V194.663C217.592 193.922 218.024 193.491 218.764 193.491H223.822C224.562 193.491 224.994 193.922 224.994 194.663V194.786C224.994 195.526 224.562 195.958 223.822 195.958H223.76C223.051 195.958 222.526 196.482 222.526 197.192V197.253C222.526 197.994 222.095 198.425 221.354 198.425H221.293C220.553 198.425 220.182 198.919 220.182 199.597V199.721C220.182 200.461 219.627 201.016 218.887 201.016H218.764C218.024 201.016 217.715 201.325 217.715 202.065V202.188C217.715 202.928 217.16 203.483 216.42 203.483H216.296C215.556 203.483 215.248 203.792 215.248 204.532ZM244.43 210.639H244.553C245.293 210.639 245.849 211.194 245.849 211.934V212.057C245.849 212.798 245.293 213.353 244.553 213.353H244.43C243.751 213.353 243.258 213.723 243.258 214.463V216.93C243.258 217.671 242.764 218.164 242.024 218.164H227.158C226.418 218.164 225.986 217.732 225.986 216.992V216.869C225.986 216.129 226.418 215.697 227.158 215.697H227.282C228.115 215.697 228.454 215.357 228.454 214.525V197.13C228.454 196.297 228.115 195.958 227.282 195.958H227.158C226.418 195.958 225.986 195.526 225.986 194.786V194.663C225.986 193.922 226.418 193.491 227.158 193.491H242.024C242.764 193.491 243.258 193.984 243.258 194.724V197.253C243.258 197.994 242.826 198.425 242.086 198.425H241.962C241.222 198.425 240.791 197.994 240.791 197.253V197.192C240.791 196.482 240.266 195.958 239.557 195.958H232.155C231.445 195.958 230.921 196.482 230.921 197.192V202.126C230.921 202.836 231.445 203.36 232.155 203.36H234.622C235.332 203.36 235.856 202.836 235.856 202.126V202.065C235.856 201.325 236.288 200.893 237.028 200.893H237.151C237.891 200.893 238.323 201.325 238.323 202.065V207.123C238.323 207.863 237.891 208.295 237.151 208.295H237.028C236.288 208.295 235.856 207.863 235.856 207.123V207.061C235.856 206.352 235.332 205.827 234.622 205.827H232.155C231.445 205.827 230.921 206.352 230.921 207.061V214.463C230.921 215.172 231.445 215.697 232.155 215.697H239.557C240.266 215.697 240.791 215.172 240.791 214.463V214.401C240.791 213.661 241.222 213.229 241.962 213.229H242.024C242.764 213.229 243.134 212.736 243.134 212.057V211.934C243.134 211.194 243.69 210.639 244.43 210.639ZM262.765 215.697H262.827C263.567 215.697 263.999 216.129 263.999 216.869V216.992C263.999 217.732 263.567 218.164 262.827 218.164H260.298C259.558 218.164 259.064 217.671 259.064 216.93V214.463C259.064 213.754 258.54 213.229 257.831 213.229H257.769C257.029 213.229 256.597 212.798 256.597 212.057V209.528C256.597 208.819 256.073 208.295 255.363 208.295H255.302C254.561 208.295 254.13 207.863 254.13 207.123V207.061C254.13 206.352 253.605 205.827 252.896 205.827H250.429C249.719 205.827 249.195 206.352 249.195 207.061V214.463C249.195 215.172 249.719 215.697 250.429 215.697H252.958C253.698 215.697 254.13 216.129 254.13 216.869V216.992C254.13 217.732 253.698 218.164 252.958 218.164H245.432C244.692 218.164 244.26 217.732 244.26 216.992V216.869C244.26 216.129 244.692 215.697 245.432 215.697H245.556C246.388 215.697 246.728 215.357 246.728 214.525V197.13C246.728 196.297 246.388 195.958 245.556 195.958H245.432C244.692 195.958 244.26 195.526 244.26 194.786V194.663C244.26 193.922 244.692 193.491 245.432 193.491H257.892C258.632 193.491 259.064 193.922 259.064 194.663V194.724C259.064 195.434 259.589 195.958 260.298 195.958H260.36C261.1 195.958 261.532 196.39 261.532 197.13V202.188C261.532 202.928 261.1 203.36 260.36 203.36H260.298C259.589 203.36 259.064 203.884 259.064 204.594V204.655C259.064 205.396 258.632 205.827 257.892 205.827H257.831C257.121 205.827 256.597 206.352 256.597 207.061C256.597 207.77 257.121 208.295 257.831 208.295H257.892C258.632 208.295 259.064 208.727 259.064 209.467V211.996C259.064 212.705 259.589 213.229 260.298 213.229H260.36C261.1 213.229 261.532 213.661 261.532 214.401V214.463C261.532 215.172 262.056 215.697 262.765 215.697ZM250.429 203.36H257.831C258.54 203.36 259.064 202.836 259.064 202.126V197.192C259.064 196.482 258.54 195.958 257.831 195.958H250.429C249.719 195.958 249.195 196.482 249.195 197.192V202.126C249.195 202.836 249.719 203.36 250.429 203.36ZM278.5 193.491H278.624C279.364 193.491 279.796 193.922 279.796 194.663V199.721C279.796 200.461 279.364 200.893 278.624 200.893H278.5C277.76 200.893 277.328 200.461 277.328 199.721V199.659C277.328 198.95 276.804 198.425 276.095 198.425H276.033C275.293 198.425 274.861 197.994 274.861 197.253V197.192C274.861 196.482 274.337 195.958 273.627 195.958H268.693C267.983 195.958 267.459 196.482 267.459 197.192V202.126C267.459 202.836 267.983 203.36 268.693 203.36H271.222C271.962 203.36 272.394 203.792 272.394 204.532V204.594C272.394 205.303 272.918 205.827 273.627 205.827H276.156C276.896 205.827 277.328 206.259 277.328 206.999V207.061C277.328 207.77 277.853 208.295 278.562 208.295H278.624C279.364 208.295 279.796 208.727 279.796 209.467V214.525C279.796 215.265 279.364 215.697 278.624 215.697H278.562C277.853 215.697 277.328 216.221 277.328 216.93V216.992C277.328 217.732 276.896 218.164 276.156 218.164H271.098C270.358 218.164 269.926 217.732 269.926 216.992V216.93C269.926 216.221 269.402 215.697 268.693 215.697C267.983 215.697 267.459 216.221 267.459 216.93V216.992C267.459 217.732 267.027 218.164 266.287 218.164H266.164C265.423 218.164 264.992 217.732 264.992 216.992V211.934C264.992 211.194 265.423 210.762 266.164 210.762H266.287C267.027 210.762 267.459 211.194 267.459 211.934V211.996C267.459 212.705 267.983 213.229 268.693 213.229H268.754C269.494 213.229 269.926 213.661 269.926 214.401V214.463C269.926 215.172 270.451 215.697 271.16 215.697H276.095C276.804 215.697 277.328 215.172 277.328 214.463V209.528C277.328 208.819 276.804 208.295 276.095 208.295H273.566C272.825 208.295 272.394 207.863 272.394 207.123V207.061C272.394 206.352 271.869 205.827 271.16 205.827H268.631C267.891 205.827 267.459 205.396 267.459 204.655V204.594C267.459 203.884 266.935 203.36 266.225 203.36H266.164C265.423 203.36 264.992 202.928 264.992 202.188V197.13C264.992 196.39 265.423 195.958 266.164 195.958H266.225C266.935 195.958 267.459 195.434 267.459 194.724V194.663C267.459 193.922 267.891 193.491 268.631 193.491H273.689C274.429 193.491 274.861 193.922 274.861 194.663V194.724C274.861 195.434 275.385 195.958 276.095 195.958C276.804 195.958 277.328 195.434 277.328 194.724V194.663C277.328 193.922 277.76 193.491 278.5 193.491Z" fill="black"/>
</svg>
