<svg xmlns="http://www.w3.org/2000/svg" xmlns:xlink="http://www.w3.org/1999/xlink" width="320" height="185" viewBox="8 106 320 185" preserveAspectRatio="xMidYMid meet" version="1.0"><defs><g/><clipPath id="3680de41d1"><rect x="0" width="250" y="0" height="92"/></clipPath><clipPath id="7bb8ec2561"><rect x="0" width="117" y="0" height="124"/></clipPath><clipPath id="6a9d308880"><rect x="0" width="17" y="0" height="75"/></clipPath></defs><g transform="matrix(1, 0, 0, 1, 18, 116)"><g clip-path="url(#3680de41d1)"><g fill="#1035b6" fill-opacity="1"><g transform="translate(0.664163, 72.638378)"><g><path d="M 3.671875 0 C 3.765625 -4.207031 3.835938 -8.445312 3.890625 -12.71875 C 3.941406 -17 3.96875 -21.316406 3.96875 -25.671875 C 3.96875 -29.878906 3.941406 -34.160156 3.890625 -38.515625 C 3.835938 -42.867188 3.765625 -47.148438 3.671875 -51.359375 L 30.375 -51.359375 C 35.601562 -51.359375 39.625 -50.082031 42.4375 -47.53125 C 45.25 -44.988281 46.65625 -41.394531 46.65625 -36.75 C 46.65625 -33.96875 45.984375 -31.679688 44.640625 -29.890625 C 43.296875 -28.109375 41.351562 -26.875 38.8125 -26.1875 L 38.8125 -26.109375 C 41.9375 -25.472656 44.328125 -24.066406 45.984375 -21.890625 C 47.648438 -19.722656 48.484375 -17.414062 48.484375 -14.96875 C 48.484375 -10.125 46.976562 -6.414062 43.96875 -3.84375 C 40.96875 -1.28125 36.703125 0 31.171875 0 Z M 13.796875 -15.109375 L 31.109375 -15.109375 C 32.523438 -15.109375 33.644531 -15.460938 34.46875 -16.171875 C 35.300781 -16.878906 35.71875 -17.75 35.71875 -18.78125 C 35.71875 -19.8125 35.289062 -20.59375 34.4375 -21.125 C 33.582031 -21.664062 32.472656 -21.9375 31.109375 -21.9375 L 13.796875 -21.9375 Z M 13.796875 -30.296875 L 30.078125 -30.296875 C 31.347656 -30.296875 32.363281 -30.5625 33.125 -31.09375 C 33.882812 -31.632812 34.265625 -32.375 34.265625 -33.3125 C 34.265625 -34.4375 33.859375 -35.203125 33.046875 -35.609375 C 32.242188 -36.023438 31.253906 -36.234375 30.078125 -36.234375 L 13.796875 -36.234375 Z M 13.796875 -30.296875 "/></g></g></g><g fill="#1035b6" fill-opacity="1"><g transform="translate(50.611311, 72.638378)"><g><path d="M 38.59375 -39.171875 C 38.539062 -37.515625 38.488281 -35.851562 38.4375 -34.1875 C 38.382812 -32.519531 38.359375 -30.550781 38.359375 -28.28125 C 38.359375 -26.007812 38.359375 -23.113281 38.359375 -19.59375 C 38.359375 -16.070312 38.359375 -13.171875 38.359375 -10.890625 C 38.359375 -8.617188 38.382812 -6.660156 38.4375 -5.015625 C 38.488281 -3.378906 38.539062 -1.707031 38.59375 0 L 28.984375 0 L 29.34375 -7.484375 C 28.125 -5.085938 26.425781 -3.101562 24.25 -1.53125 C 22.070312 0.03125 19.242188 0.8125 15.765625 0.8125 C 12.441406 0.8125 9.8125 0.078125 7.875 -1.390625 C 5.945312 -2.859375 4.59375 -4.773438 3.8125 -7.140625 C 3.03125 -9.515625 2.6875 -12 2.78125 -14.59375 C 2.925781 -17.925781 3.007812 -20.835938 3.03125 -23.328125 C 3.0625 -25.816406 3.078125 -28.296875 3.078125 -30.765625 C 3.078125 -33.242188 3.050781 -36.046875 3 -39.171875 L 12.390625 -39.171875 C 12.296875 -37.703125 12.234375 -35.953125 12.203125 -33.921875 C 12.179688 -31.898438 12.171875 -29.882812 12.171875 -27.875 C 12.171875 -25.875 12.171875 -24.1875 12.171875 -22.8125 C 12.171875 -20.757812 12.550781 -19.144531 13.3125 -17.96875 C 14.070312 -16.800781 15.0625 -15.984375 16.28125 -15.515625 C 17.507812 -15.046875 18.757812 -14.8125 20.03125 -14.8125 C 23.300781 -14.8125 25.671875 -15.65625 27.140625 -17.34375 C 28.609375 -19.03125 29.367188 -21.632812 29.421875 -25.15625 C 29.460938 -26.820312 29.484375 -28.335938 29.484375 -29.703125 C 29.484375 -31.078125 29.472656 -32.507812 29.453125 -34 C 29.429688 -35.488281 29.367188 -37.210938 29.265625 -39.171875 Z M 38.59375 -39.171875 "/></g></g></g><g fill="#1035b6" fill-opacity="1"><g transform="translate(92.270659, 72.638378)"><g><path d="M 1.46875 0 L 1.46875 -10.703125 L 18.859375 -25.75 L 18.859375 -25.96875 L 2.9375 -25.96875 L 2.9375 -39.171875 L 34.328125 -39.171875 L 34.328125 -27.734375 L 17.609375 -13.5 L 17.609375 -13.203125 L 35.0625 -13.203125 L 35.0625 0 Z M 1.46875 0 "/></g></g></g><g fill="#1035b6" fill-opacity="1"><g transform="translate(128.795883, 72.638378)"><g><path d="M 1.46875 0 L 1.46875 -10.703125 L 18.859375 -25.75 L 18.859375 -25.96875 L 2.9375 -25.96875 L 2.9375 -39.171875 L 34.328125 -39.171875 L 34.328125 -27.734375 L 17.609375 -13.5 L 17.609375 -13.203125 L 35.0625 -13.203125 L 35.0625 0 Z M 1.46875 0 "/></g></g></g><g fill="#1035b6" fill-opacity="1"><g transform="translate(165.321108, 72.638378)"><g><path d="M 21.28125 0.734375 C 14.332031 0.734375 9.289062 -1.035156 6.15625 -4.578125 C 3.03125 -8.128906 1.46875 -13.054688 1.46875 -19.359375 C 1.46875 -26.015625 3.101562 -31.101562 6.375 -34.625 C 9.65625 -38.144531 14.625 -39.90625 21.28125 -39.90625 C 25.09375 -39.90625 28.234375 -39.097656 30.703125 -37.484375 C 33.171875 -35.867188 35.003906 -33.65625 36.203125 -30.84375 C 37.398438 -28.03125 38 -24.789062 38 -21.125 L 38 -16.0625 L 10.34375 -16.0625 C 10.976562 -14.550781 12.238281 -13.453125 14.125 -12.765625 C 16.007812 -12.078125 18.734375 -11.734375 22.296875 -11.734375 C 24.992188 -11.734375 27.539062 -11.914062 29.9375 -12.28125 C 32.332031 -12.65625 34.65625 -13.0625 36.90625 -13.5 L 35.71875 -1.6875 C 33.46875 -1 31.144531 -0.425781 28.75 0.03125 C 26.351562 0.5 23.863281 0.734375 21.28125 0.734375 Z M 10.421875 -22.8125 L 29.125 -22.8125 C 29.070312 -24.132812 28.238281 -25.285156 26.625 -26.265625 C 25.007812 -27.242188 23.003906 -27.734375 20.609375 -27.734375 C 15.085938 -27.734375 11.691406 -26.09375 10.421875 -22.8125 Z M 10.421875 -22.8125 "/></g></g></g><g fill="#1035b6" fill-opacity="1"><g transform="translate(204.413358, 72.638378)"><g><path d="M 19.65625 0.734375 C 16.132812 0.734375 13.003906 0.0234375 10.265625 -1.390625 C 7.523438 -2.804688 5.375 -5.03125 3.8125 -8.0625 C 2.25 -11.101562 1.46875 -14.992188 1.46875 -19.734375 C 1.46875 -24.472656 2.25 -28.320312 3.8125 -31.28125 C 5.375 -34.238281 7.523438 -36.414062 10.265625 -37.8125 C 13.003906 -39.207031 16.132812 -39.90625 19.65625 -39.90625 C 22.539062 -39.90625 24.9375 -39.304688 26.84375 -38.109375 C 28.75 -36.910156 30.289062 -35.382812 31.46875 -33.53125 L 31.328125 -51.359375 L 40.5625 -51.359375 C 40.519531 -45.578125 40.484375 -40.691406 40.453125 -36.703125 C 40.429688 -32.722656 40.421875 -29.023438 40.421875 -25.609375 C 40.421875 -23.890625 40.421875 -21.867188 40.421875 -19.546875 C 40.421875 -17.222656 40.421875 -14.835938 40.421875 -12.390625 C 40.421875 -9.953125 40.429688 -7.644531 40.453125 -5.46875 C 40.484375 -3.289062 40.519531 -1.46875 40.5625 0 L 31.328125 0 L 31.390625 -5.578125 C 30.222656 -3.765625 28.6875 -2.257812 26.78125 -1.0625 C 24.875 0.132812 22.5 0.734375 19.65625 0.734375 Z M 10.34375 -19.59375 C 10.34375 -15.625 13.863281 -13.640625 20.90625 -13.640625 C 27.65625 -13.640625 31.175781 -15.472656 31.46875 -19.140625 L 31.46875 -20.03125 C 31.226562 -23.75 27.707031 -25.609375 20.90625 -25.609375 C 13.863281 -25.609375 10.34375 -23.601562 10.34375 -19.59375 Z M 10.34375 -19.59375 "/></g></g></g></g></g><g transform="matrix(1, 0, 0, 1, 185, 157)"><g clip-path="url(#7bb8ec2561)"><g fill="#1035b6" fill-opacity="1"><g transform="translate(0.526101, 97.057349)"><g><path d="M 51.984375 -52.78125 C 51.921875 -50.53125 51.851562 -48.285156 51.78125 -46.046875 C 51.71875 -43.804688 51.6875 -41.15625 51.6875 -38.09375 C 51.6875 -35.03125 51.6875 -31.128906 51.6875 -26.390625 C 51.6875 -21.640625 51.6875 -17.734375 51.6875 -14.671875 C 51.6875 -11.609375 51.71875 -8.972656 51.78125 -6.765625 C 51.851562 -4.554688 51.921875 -2.300781 51.984375 0 L 39.03125 0 L 39.53125 -10.078125 C 37.882812 -6.847656 35.59375 -4.175781 32.65625 -2.0625 C 29.726562 0.0390625 25.925781 1.09375 21.25 1.09375 C 16.769531 1.09375 13.226562 0.101562 10.625 -1.875 C 8.019531 -3.851562 6.191406 -6.4375 5.140625 -9.625 C 4.085938 -12.820312 3.625 -16.171875 3.75 -19.671875 C 3.945312 -24.148438 4.0625 -28.066406 4.09375 -31.421875 C 4.132812 -34.785156 4.15625 -38.128906 4.15625 -41.453125 C 4.15625 -44.785156 4.117188 -48.5625 4.046875 -52.78125 L 16.703125 -52.78125 C 16.566406 -50.800781 16.484375 -48.441406 16.453125 -45.703125 C 16.421875 -42.972656 16.40625 -40.253906 16.40625 -37.546875 C 16.40625 -34.847656 16.40625 -32.578125 16.40625 -30.734375 C 16.40625 -27.960938 16.914062 -25.785156 17.9375 -24.203125 C 18.957031 -22.628906 20.289062 -21.53125 21.9375 -20.90625 C 23.582031 -20.28125 25.265625 -19.96875 26.984375 -19.96875 C 31.390625 -19.96875 34.582031 -21.101562 36.5625 -23.375 C 38.539062 -25.644531 39.5625 -29.148438 39.625 -33.890625 C 39.695312 -36.140625 39.734375 -38.1875 39.734375 -40.03125 C 39.734375 -41.875 39.710938 -43.800781 39.671875 -45.8125 C 39.640625 -47.820312 39.5625 -50.144531 39.4375 -52.78125 Z M 51.984375 -52.78125 "/></g></g></g><g fill="#1035b6" fill-opacity="1"><g transform="translate(56.653084, 97.057349)"><g><path d="M 31.328125 -53.765625 C 36.460938 -53.765625 40.941406 -52.804688 44.765625 -50.890625 C 48.585938 -48.984375 51.550781 -46.003906 53.65625 -41.953125 C 55.769531 -37.898438 56.828125 -32.644531 56.828125 -26.1875 C 56.828125 -19.863281 55.769531 -14.691406 53.65625 -10.671875 C 51.550781 -6.648438 48.585938 -3.703125 44.765625 -1.828125 C 40.941406 0.046875 36.460938 0.984375 31.328125 0.984375 C 27.765625 0.984375 24.765625 0.195312 22.328125 -1.375 C 19.890625 -2.957031 17.914062 -4.9375 16.40625 -7.3125 L 16.609375 19.375 L 4.15625 19.375 C 4.21875 13.175781 4.265625 7.835938 4.296875 3.359375 C 4.328125 -1.117188 4.34375 -5.085938 4.34375 -8.546875 C 4.34375 -12.003906 4.34375 -15.25 4.34375 -18.28125 C 4.34375 -20.582031 4.34375 -23.296875 4.34375 -26.421875 C 4.34375 -29.554688 4.34375 -32.769531 4.34375 -36.0625 C 4.34375 -39.363281 4.328125 -42.476562 4.296875 -45.40625 C 4.265625 -48.34375 4.21875 -50.800781 4.15625 -52.78125 L 16.609375 -52.78125 L 16.5 -45.5625 C 18.019531 -47.9375 20 -49.894531 22.4375 -51.4375 C 24.875 -52.988281 27.835938 -53.765625 31.328125 -53.765625 Z M 16.40625 -25.796875 C 16.738281 -20.785156 21.484375 -18.28125 30.640625 -18.28125 C 40.128906 -18.28125 44.875 -20.984375 44.875 -26.390625 C 44.875 -31.722656 40.128906 -34.390625 30.640625 -34.390625 C 21.546875 -34.390625 16.800781 -31.921875 16.40625 -26.984375 Z M 16.40625 -25.796875 "/></g></g></g></g></g><g transform="matrix(1, 0, 0, 1, 301, 195)"><g clip-path="url(#6a9d308880)"><g fill="#1035b6" fill-opacity="1"><g transform="translate(0.35476, 58.758708)"><g><path d="M 7.328125 0.78125 C 5.578125 0.78125 4.164062 0.273438 3.09375 -0.734375 C 2.019531 -1.753906 1.484375 -3.0625 1.484375 -4.65625 C 1.484375 -6.28125 2.019531 -7.566406 3.09375 -8.515625 C 4.164062 -9.472656 5.578125 -9.953125 7.328125 -9.953125 C 9.078125 -9.953125 10.476562 -9.472656 11.53125 -8.515625 C 12.59375 -7.566406 13.125 -6.28125 13.125 -4.65625 C 13.125 -3.0625 12.59375 -1.753906 11.53125 -0.734375 C 10.476562 0.273438 9.078125 0.78125 7.328125 0.78125 Z M 7.328125 0.78125 "/></g></g></g></g></g></svg>