<?xml version="1.0" encoding="utf-8"?>
<svg xmlns="http://www.w3.org/2000/svg" height="389.1px" id="Laag_1" style="enable-background:new 0 0 494.5 389.1;" version="1.1" viewBox="0 0 494.5 389.1" width="494.5px" x="0px" y="0px">
<style type="text/css">
	.st0{fill:#FFFFFF;}
	.st1{fill:#0062AE;}
</style>
<g>
	<path class="st0" d="M392.7,0h-291c-4.7,0-8.6,3.8-8.6,8.6v291c0,4.7,3.8,8.6,8.6,8.6h291c4.7,0,8.6-3.8,8.6-8.6V8.6&#xA;		C401.3,3.8,397.5,0,392.7,0z M395.6,293.8c0,4.7-3.8,8.6-8.6,8.6H107.5c-4.7,0-8.6-3.8-8.6-8.6V14.3c0-4.7,3.8-8.6,8.6-8.6H387&#xA;		c4.7,0,8.6,3.8,8.6,8.6V293.8z"/>
</g>
<g>
	<path class="st1" d="M387,5.8H107.5c-4.7,0-8.6,3.8-8.6,8.6v279.4c0,4.7,3.8,8.6,8.6,8.6H387c4.7,0,8.6-3.8,8.6-8.6V14.3&#xA;		C395.6,9.6,391.7,5.8,387,5.8z"/>
</g>
<g>
	<path class="st0" d="M329.3,164.6c-39,0-70.7,32-70.7,71.4c0,39.5,31.7,71.4,70.7,71.4c39.1,0,70.7-32,70.7-71.4&#xA;		C400,196.6,368.3,164.6,329.3,164.6z M329.3,283c-25.7,0-46.5-21-46.5-47c0-25.9,20.8-47,46.5-47c25.7,0,46.5,21,46.5,47&#xA;		C375.8,262,355,283,329.3,283z"/>
	<path class="st0" d="M233.5,230.5c4.9-2.7,8.6-5.4,10.9-8c2.4-2.7,3.6-6,3.6-9.9c0-4.7-1.8-8.4-5.2-10.9c-3.4-2.5-7.9-3.8-13.3-3.8&#xA;		c-3.4,0-6.7,0.4-9.6,1.1c-3,0.7-5.4,1.7-7.1,3c-0.9,0.6-1.1,1.3-1.1,1.8c0,0.5,0.2,1,0.5,1.5l2,3.6c0.5,0.7,1,1.1,1.6,1.1&#xA;		c0.3,0,0.6-0.1,1.4-0.5c1.4-0.8,3-1.4,4.9-1.9c1.9-0.5,3.9-0.8,6.1-0.8c2.9,0,5.1,0.6,6.6,1.7c1.5,1.1,2.2,2.6,2.2,4.8&#xA;		c0,1.7-0.3,3.1-1,4.2c-0.7,1.1-1.7,2.2-3.2,3.3c-1.5,1.1-4,2.6-7.3,4.5c-4.8,2.7-8.5,5.6-10.9,8.7c-2.5,3.1-3.7,6.3-3.7,9.6v2.8&#xA;		c0,2.1,1.2,3.4,3.3,3.4h30c1.2,0,2.1-0.3,2.7-0.9c0.6-0.6,0.8-1.4,0.8-2.5v-1.9c0-1.1-0.3-2-0.8-2.6c-0.6-0.6-1.5-0.9-2.7-0.9h-22&#xA;		c0.4-1.4,1.4-2.9,2.9-4.4C227.3,234.2,230,232.3,233.5,230.5z"/>
	<path class="st0" d="M178,237.4L178,237.4L178,237.4l35.7-62.2c0.6-1,1-2,1-2.9c0-0.8-0.2-1.4-0.6-1.8c-0.4-0.4-1-0.7-1.8-0.7&#xA;		l-19.1,0.1c-1.2,0-2,0.2-2.6,0.5c-0.5,0.3-1.1,0.9-1.6,1.8l-24.1,43.5l-23.5-43.5c-0.5-0.9-1.1-1.5-1.6-1.8&#xA;		c-0.5-0.3-1.4-0.5-2.6-0.5l-18.7,0c-0.9,0-1.5,0.2-1.9,0.7c-0.4,0.5-0.6,1.1-0.6,1.8c0,0.9,0.3,1.9,1,2.9l35.5,62.1l0,0.1h0&#xA;		l-7.7,13.3L118,296.8c-0.1,0.3-0.3,0.6-0.4,0.8l-2.7,4.7h26.4l23.5-43.1l24,43.1h14.6l7,0.1c0.2,0,0.4,0,0.6-0.1h4.3L178,237.4z"/>
</g>
<g>
	<path class="st0" d="M186.2,92.9c14,0,25.4,11.4,25.4,25.4c0,14-11.4,25.4-25.4,25.4c-14,0-25.4-11.4-25.4-25.4&#xA;		C160.8,104.3,172.2,92.9,186.2,92.9 M186.2,90.7c-15.3,0-27.7,12.4-27.7,27.7s12.4,27.7,27.7,27.7s27.7-12.4,27.7-27.7&#xA;		S201.5,90.7,186.2,90.7L186.2,90.7z"/>
</g>
<g>
	<path class="st0" d="M227.9,61.9c8.1,0,14.7,6.6,14.7,14.7s-6.6,14.7-14.7,14.7s-14.7-6.6-14.7-14.7S219.8,61.9,227.9,61.9&#xA;		 M227.9,59.6c-9.4,0-17,7.6-17,17s7.6,17,17,17c9.4,0,17-7.6,17-17S237.3,59.6,227.9,59.6L227.9,59.6z"/>
</g>
<g>
	<path class="st0" d="M198.4,33.3c5.4,0,9.8,4.4,9.8,9.8s-4.4,9.8-9.8,9.8s-9.8-4.4-9.8-9.8S193,33.3,198.4,33.3 M198.4,31.1&#xA;		c-6.7,0-12.1,5.4-12.1,12.1c0,6.7,5.4,12.1,12.1,12.1s12.1-5.4,12.1-12.1C210.5,36.5,205.1,31.1,198.4,31.1L198.4,31.1z"/>
</g>
<g>
	<g>
		<path class="st1" d="M0,336.3h24.5c6,0,10.8,1.7,13.8,4.7c2.4,2.4,3.6,5.4,3.6,9v0.2c0,6-3.2,9.3-6.9,11.4c6.1,2.3,9.9,5.9,9.9,13&#xA;			v0.2c0,9.6-7.8,14.5-19.7,14.5H0V336.3z M30.4,351.9c0-3.5-2.7-5.4-7.6-5.4H11.3v11.2H22c5.1,0,8.4-1.7,8.4-5.6V351.9z&#xA;			 M24.7,367.3H11.3v11.6h13.8c5.1,0,8.2-1.8,8.2-5.7V373C33.3,369.5,30.7,367.3,24.7,367.3z"/>
	</g>
	<g>
		<path class="st1" d="M72.5,336h10.7l22.6,53.1H93.7l-4.8-11.8H66.6l-4.8,11.8H49.9L72.5,336z M84.7,367l-7-17.1l-7,17.1H84.7z"/>
	</g>
	<g>
		<path class="st1" d="M114,336.3h20.6c16.6,0,28,11.4,28,26.2v0.2c0,14.8-11.5,26.4-28,26.4H114V336.3z M125.6,346.8v31.8h9&#xA;			c9.5,0,15.9-6.4,15.9-15.8v-0.2c0-9.3-6.4-15.9-15.9-15.9H125.6z"/>
	</g>
	<g>
		<path class="st1" d="M172.9,336.3h11.6v23.1l21.4-23.1h14l-21.5,22.4l22.5,30.4H207l-16.4-22.5l-6.1,6.3v16.1h-11.6V336.3z"/>
	</g>
	<g>
		<path class="st1" d="M244.5,336h10.7l22.6,53.1h-12.1l-4.8-11.8h-22.3l-4.8,11.8h-11.8L244.5,336z M256.7,367l-7-17.1l-7,17.1&#xA;			H256.7z"/>
	</g>
	<g>
		<path class="st1" d="M286,336.3h12.5l13.9,22.3l13.9-22.3h12.5v52.8h-11.5v-34.4l-14.8,22.5H312l-14.7-22.3v34.2H286V336.3z"/>
	</g>
	<g>
		<path class="st1" d="M351.4,336.3h39.8v10.3h-28.3v10.7h24.9v10.3h-24.9v11.1h28.6v10.3h-40.2V336.3z"/>
	</g>
	<g>
		<path class="st1" d="M401.9,336.3H426c6.7,0,11.9,1.9,15.4,5.4c2.9,2.9,4.5,7.1,4.5,12.1v0.2c0,8.5-4.6,13.9-11.3,16.4l12.9,18.8&#xA;			h-13.6l-11.3-16.9h-9.1v16.9h-11.6V336.3z M425.3,362c5.7,0,8.9-3,8.9-7.5v-0.2c0-5-3.5-7.5-9.1-7.5h-11.5V362H425.3z"/>
	</g>
	<g>
		<path class="st1" d="M452.8,381.4l6.9-8.2c4.7,3.9,9.7,6.4,15.8,6.4c4.7,0,7.6-1.9,7.6-5v-0.2c0-2.9-1.8-4.4-10.6-6.7&#xA;			c-10.6-2.7-17.5-5.7-17.5-16.1v-0.2c0-9.6,7.7-15.9,18.5-15.9c7.7,0,14.2,2.4,19.6,6.7l-6,8.7c-4.7-3.2-9.3-5.2-13.7-5.2&#xA;			c-4.4,0-6.8,2-6.8,4.6v0.2c0,3.5,2.3,4.6,11.4,6.9c10.7,2.8,16.7,6.6,16.7,15.8v0.2c0,10.5-8,16.4-19.4,16.4&#xA;			C467.2,389.9,459.1,387.1,452.8,381.4z"/>
	</g>
</g>
</svg>